<?xml version="1.0" encoding="UTF-8" standalone="no"?>
<!-- Created with Inkscape (http://www.inkscape.org/) -->

<svg
   xmlns:dc="http://purl.org/dc/elements/1.1/"
   xmlns:cc="http://creativecommons.org/ns#"
   xmlns:rdf="http://www.w3.org/1999/02/22-rdf-syntax-ns#"
   xmlns:svg="http://www.w3.org/2000/svg"
   xmlns="http://www.w3.org/2000/svg"
   xmlns:xlink="http://www.w3.org/1999/xlink"
   xmlns:sodipodi="http://sodipodi.sourceforge.net/DTD/sodipodi-0.dtd"
   xmlns:inkscape="http://www.inkscape.org/namespaces/inkscape"
   width="192"
   height="192"
   viewBox="0 0 28.551294 36.838138"
   version="1.1"
   id="svg8"
   inkscape:version="0.92.3 (2405546, 2018-03-11)"
   sodipodi:docname="icon.svg"
   inkscape:export-filename="/home/pepies/portfolio/logo/icon72.png"
   inkscape:export-xdpi="36"
   inkscape:export-ydpi="36">
  <defs
     id="defs2">
    <linearGradient
       inkscape:collect="always"
       id="linearGradient950">
      <stop
         style="stop-color:#233250;stop-opacity:1"
         offset="0"
         id="stop946" />
      <stop
         style="stop-color:#233250;stop-opacity:0;"
         offset="1"
         id="stop948" />
    </linearGradient>
    <linearGradient
       id="linearGradient912"
       inkscape:collect="always">
      <stop
         id="stop908"
         offset="0"
         style="stop-color:#233250;stop-opacity:1" />
      <stop
         id="stop910"
         offset="1"
         style="stop-color:#233250;stop-opacity:0;" />
    </linearGradient>
    <linearGradient
       inkscape:collect="always"
       xlink:href="#linearGradient950"
       id="linearGradient985"
       x1="66.855904"
       y1="78.598335"
       x2="76.207268"
       y2="78.598335"
       gradientUnits="userSpaceOnUse"
       gradientTransform="matrix(0.89453125,0,0,0.90167276,9.2967588,6.2274312)" />
    <linearGradient
       inkscape:collect="always"
       xlink:href="#linearGradient912"
       id="linearGradient985-2"
       x1="66.271248"
       y1="80.744255"
       x2="72.298241"
       y2="80.641602"
       gradientUnits="userSpaceOnUse"
       gradientTransform="matrix(0.89700087,0,0,0.82496188,18.019145,-10.611312)" />
  </defs>
  <sodipodi:namedview
     id="base"
     pagecolor="#ffffff"
     bordercolor="#666666"
     borderopacity="1.0"
     inkscape:pageopacity="0.0"
     inkscape:pageshadow="2"
     inkscape:zoom="8"
     inkscape:cx="47.819745"
     inkscape:cy="96.791763"
     inkscape:document-units="mm"
     inkscape:current-layer="layer1"
     showgrid="false"
     inkscape:window-width="3840"
     inkscape:window-height="2106"
     inkscape:window-x="0"
     inkscape:window-y="54"
     inkscape:window-maximized="1"
     inkscape:snap-bbox="false"
     inkscape:snap-bbox-edge-midpoints="true"
     inkscape:bbox-nodes="true"
     inkscape:snap-nodes="true"
     inkscape:snap-bbox-midpoints="false" />
  <metadata
     id="metadata5">
    <rdf:RDF>
      <cc:Work
         rdf:about="">
        <dc:format>image/svg+xml</dc:format>
        <dc:type
           rdf:resource="http://purl.org/dc/dcmitype/StillImage" />
        <dc:title></dc:title>
      </cc:Work>
    </rdf:RDF>
  </metadata>
  <g
     inkscape:label="Layer 1"
     inkscape:groupmode="layer"
     id="layer1"
     transform="translate(-66.857633,-45.47138)">
    <g
       aria-label="B"
       style="font-style:normal;font-variant:normal;font-weight:normal;font-stretch:normal;font-size:50.79999924px;line-height:1.25;font-family:'Codec Cold Trial';-inkscape-font-specification:'Codec Cold Trial';letter-spacing:0px;word-spacing:0px;fill:#000000;fill-opacity:1;stroke:none;stroke-width:0.26458332"
       id="text844"
       transform="matrix(0.89453125,0,0,0.89453125,9.2951998,6.7624291)">
      <path
         d="m 76.2101,61.696822 h 5.357813 c 0.281119,0 0.570507,-0.05788 0.868164,-0.173633 0.297656,-0.132291 0.562239,-0.314192 0.79375,-0.545703 0.248047,-0.248047 0.446484,-0.545703 0.595312,-0.892969 0.165365,-0.347265 0.248047,-0.74414 0.248047,-1.190625 0,-0.413411 -0.07441,-0.79375 -0.223242,-1.141015 -0.148828,-0.363802 -0.347265,-0.669727 -0.595312,-0.917774 -0.231511,-0.248047 -0.496094,-0.438216 -0.79375,-0.570508 -0.28112,-0.148828 -0.570508,-0.223242 -0.868165,-0.223242 H 76.2101 Z m 6.374805,13.171289 1.062431,-0.01578 c 0.538195,-0.02806 0.218957,0.02396 0.921944,-0.07793 0.126101,-0.02295 0.611849,-0.146075 0.843359,-0.559489 0.231511,-0.413411 0.347266,-0.917773 0.347266,-1.513086 0,-0.496093 -0.09095,-0.934309 -0.272852,-1.314648 C 85.321688,70.990304 85.090178,70.659575 84.792522,70.394991 84.511402,70.130408 84.172405,69.93197 83.77553,69.799678 83.395191,69.65085 82.988563,69.612142 82.5601,69.576436 h -6.35 v 5.291667 z M 66.858733,82.309517 V 48.575142 h 15.279688 c 1.752864,0 3.332096,0.206706 4.737695,0.620118 1.422135,0.413411 2.629297,1.02526 3.621484,1.835546 0.992187,0.810287 1.752864,1.819011 2.282031,3.026172 0.529167,1.190625 0.79375,2.563151 0.79375,4.117578 0,0.677995 -0.115755,1.347722 -0.347265,2.00918 -0.214974,0.661458 -0.504362,1.273307 -0.868164,1.835547 -0.363802,0.545703 -0.785482,1.033529 -1.265039,1.463476 -0.463021,0.413412 -0.942579,0.719337 -1.438672,0.917774 0.760677,0.297656 1.488281,0.702799 2.182812,1.215429 0.694531,0.496094 1.30638,1.07487 1.835547,1.736329 0.529167,0.644921 0.950846,1.364257 1.265039,2.158007 0.314193,0.79375 0.471289,1.637109 0.471289,2.530078 0,1.918229 -0.355534,3.530534 -1.066601,4.836914 -0.694531,1.306381 -1.604037,2.364714 -2.728516,3.175 -1.124479,0.810287 -2.397787,1.389063 -3.819922,1.736328 -1.405599,0.347266 -2.819466,0.520899 -4.241601,0.520899 z"
         style="font-style:normal;font-variant:normal;font-weight:900;font-stretch:normal;font-size:50.79999924px;font-family:'Codec Cold Trial';-inkscape-font-specification:'Codec Cold Trial Heavy';stroke-width:0.26458332"
         id="path913"
         inkscape:connector-curvature="0"
         sodipodi:nodetypes="cscscscccsccccccscccscccccscscsccccccsscscsc" />
    </g>
    <g
       aria-label="P"
       style="font-style:normal;font-variant:normal;font-weight:normal;font-stretch:normal;font-size:50.79999924px;line-height:1.25;font-family:'Codec Cold Trial';-inkscape-font-specification:'Codec Cold Trial';letter-spacing:0px;word-spacing:0px;fill:#233250;fill-opacity:1;stroke:none;stroke-width:0.26458332"
       id="text844-8"
       transform="matrix(0.89453125,0,0,0.89453125,9.2967588,6.802761)">
      <path
         d="m 76.20727,69.313207 0.0011,5.509817 h -9.35138 l -0.0011,-29.396731 h 14.90763 c 1.835547,0 3.522265,0.297656 5.060156,0.892969 1.537891,0.595312 2.860807,1.430403 3.96875,2.505273 1.124479,1.058333 1.992643,2.323372 2.604492,3.795117 0.628385,1.455209 0.942578,3.050977 0.942578,4.787305 0,1.769401 -0.314193,3.381705 -0.942578,4.836914 -0.611849,1.455208 -1.471744,2.711979 -2.579687,3.770312 -1.091407,1.041797 -2.406055,1.852084 -3.943946,2.43086 -1.521354,0.578776 -3.183268,0.868164 -4.985742,0.868164 z m 5.13457,-7.788672 c 0.496094,0 0.959115,-0.107487 1.389063,-0.322461 0.446484,-0.214974 0.835091,-0.504362 1.16582,-0.868164 0.347265,-0.380339 0.611849,-0.818555 0.79375,-1.314649 0.198437,-0.496093 0.297656,-1.033528 0.297656,-1.612304 0,-0.56224 -0.09922,-1.091407 -0.297656,-1.5875 -0.181901,-0.51263 -0.438216,-0.959114 -0.768945,-1.339453 -0.330729,-0.380339 -0.719336,-0.686263 -1.165821,-0.917774 -0.429948,-0.23151 -0.892969,-0.347265 -1.389062,-0.347265 H 76.20727 v 8.30957 z"
         style="font-style:normal;font-variant:normal;font-weight:900;font-stretch:normal;font-size:50.79999924px;font-family:'Codec Cold Trial';-inkscape-font-specification:'Codec Cold Trial Heavy';fill:#233250;fill-opacity:1;stroke-width:0.26458332"
         id="path910"
         inkscape:connector-curvature="0"
         sodipodi:nodetypes="ccccssccscccscscccscscsccs" />
    </g>
    <path
       style="fill:url(#linearGradient985);fill-opacity:1;fill-rule:nonzero;stroke-width:0.29410776"
       d="M 69.102424,73.710309 H 79.190827 L 69.102424,80.390862 Z"
       id="rect879"
       inkscape:connector-curvature="0"
       sodipodi:nodetypes="cccc" />
    <text
       xml:space="preserve"
       style="font-style:normal;font-weight:normal;font-size:10.58333302px;line-height:1.25;font-family:sans-serif;letter-spacing:0px;word-spacing:0px;fill:#000000;fill-opacity:1;stroke:none;stroke-width:0.26458332"
       x="41.238506"
       y="67.763962"
       id="text884"><tspan
         sodipodi:role="line"
         id="tspan882"
         x="41.238506"
         y="77.127731"
         style="stroke-width:0.26458332" /></text>
    <g
       aria-label="&lt;/"
       transform="matrix(0.92334707,0,0,1.0830164,64.124604,-1.4598216)"
       style="font-style:italic;font-variant:normal;font-weight:300;font-stretch:normal;font-size:30.82366943px;line-height:1.25;font-family:'Codec Cold';-inkscape-font-specification:'Codec Cold Light Italic';letter-spacing:0px;word-spacing:0px;fill:#000000;fill-opacity:1;stroke:none;stroke-width:0.23117755"
       id="text817-3-5" />
    <path
       style="fill:url(#linearGradient985-2);fill-opacity:1;fill-rule:nonzero;stroke-width:0.28170699"
       d="m 77.442559,54.375229 8.711122,0.011 -3.579232,2.481839 -5.130915,0.02511 z"
       id="rect879-2"
       inkscape:connector-curvature="0"
       sodipodi:nodetypes="ccccc" />
  </g>
</svg>
