<?xml version="1.0" encoding="UTF-8" standalone="no"?>
<!-- Created with Inkscape (http://www.inkscape.org/) -->

<svg
   xmlns:dc="http://purl.org/dc/elements/1.1/"
   xmlns:cc="http://creativecommons.org/ns#"
   xmlns:rdf="http://www.w3.org/1999/02/22-rdf-syntax-ns#"
   xmlns:svg="http://www.w3.org/2000/svg"
   xmlns="http://www.w3.org/2000/svg"
   xmlns:sodipodi="http://sodipodi.sourceforge.net/DTD/sodipodi-0.dtd"
   xmlns:inkscape="http://www.inkscape.org/namespaces/inkscape"
   width="32.623226mm"
   height="39.673851mm"
   viewBox="0 0 32.623226 39.673851"
   version="1.1"
   id="svg920"
   inkscape:version="0.92.3 (2405546, 2018-03-11)"
   sodipodi:docname="portait.svg">
  <defs
     id="defs914" />
  <sodipodi:namedview
     id="base"
     pagecolor="#ffffff"
     bordercolor="#666666"
     borderopacity="1.0"
     inkscape:pageopacity="0.0"
     inkscape:pageshadow="2"
     inkscape:zoom="8.4207162"
     inkscape:cx="9.2989877"
     inkscape:cy="71.332135"
     inkscape:document-units="mm"
     inkscape:current-layer="layer1"
     showgrid="false"
     inkscape:window-width="3840"
     inkscape:window-height="2106"
     inkscape:window-x="0"
     inkscape:window-y="54"
     inkscape:window-maximized="1"
     inkscape:snap-intersection-paths="true" />
  <metadata
     id="metadata917">
    <rdf:RDF>
      <cc:Work
         rdf:about="">
        <dc:format>image/svg+xml</dc:format>
        <dc:type
           rdf:resource="http://purl.org/dc/dcmitype/StillImage" />
        <dc:title />
      </cc:Work>
    </rdf:RDF>
  </metadata>
  <g
     inkscape:label="Layer 1"
     inkscape:groupmode="layer"
     id="layer1"
     transform="translate(-31.422537,-103.56083)">
    <ellipse
       style="font-style:normal;font-variant:normal;font-weight:normal;font-stretch:normal;font-size:50.79999924px;line-height:1.25;font-family:'Codec Cold Trial';-inkscape-font-specification:'Codec Cold Trial';letter-spacing:0px;word-spacing:0px;opacity:1;fill:#969da2;fill-opacity:1;stroke:none;stroke-width:0.03077401;stroke-opacity:1"
       id="ellipse889-3"
       cx="47.73415"
       cy="125.78913"
       rx="16.311613"
       ry="16.425909" />
    <path
       id="path970"
       style="font-style:normal;font-variant:normal;font-weight:normal;font-stretch:normal;font-size:50.79999924px;line-height:1.25;font-family:'Codec Cold Trial';-inkscape-font-specification:'Codec Cold Trial';letter-spacing:0px;word-spacing:0px;opacity:1;fill:#f8bf96;fill-opacity:1;stroke:none;stroke-width:0.10315575;stroke-opacity:1"
       d="m 46.130644,125.88112 c -0.44106,0.004 -0.886343,0.0462 -1.332128,0.12472 -0.0011,0.002 -0.0011,0.004 -0.003,0.007 0.01824,0.0233 0.0033,0.12905 0.0018,0.16879 3.6e-5,1.13626 0.921217,2.05734 2.057481,2.05725 1.060134,-8.2e-4 1.946123,-0.80698 2.046593,-1.86234 -0.0049,-0.008 -0.0021,-0.0188 -0.0029,-0.0273 -0.808746,-0.28852 -1.667228,-0.45005 -2.545913,-0.46683 -0.07384,-10e-4 -0.14785,-0.002 -0.221945,-10e-4 z"
       inkscape:connector-curvature="0"
       sodipodi:nodetypes="cccccccccc" />
    <path
       sodipodi:nodetypes="ccccccccccccc"
       inkscape:connector-curvature="0"
       d="m 45.496622,125.91338 c -0.232206,0.0209 -0.462136,0.0412 -0.695148,0.0823 -0.01374,0.0798 -0.0047,0.13008 -0.0086,0.18806 3.6e-5,1.13627 0.925692,2.0551 2.061956,2.05501 1.060134,-8.2e-4 1.946123,-0.80698 2.046593,-1.86234 -0.0047,-0.008 -0.0023,-0.018 -0.0029,-0.0264 0,0 0,1e-5 0,0 -0.08308,0.77485 -0.811026,1.36676 -1.682209,1.36734 -0.934121,6e-5 -1.691483,-0.67662 -1.691513,-1.51137 5.82e-4,-0.0146 -0.01149,-0.15331 -0.02544,-0.28941 -6.88e-4,-5.8e-4 -0.0012,-9.3e-4 -0.002,-0.002 -6.88e-4,-5.8e-4 -2.33e-4,-10e-4 -4.76e-4,-0.002 z"
       style="font-style:normal;font-variant:normal;font-weight:normal;font-stretch:normal;font-size:50.79999924px;line-height:1.25;font-family:'Codec Cold Trial';-inkscape-font-specification:'Codec Cold Trial';letter-spacing:0px;word-spacing:0px;opacity:1;fill:#e9ae85;fill-opacity:1;stroke:none;stroke-width:0.10315575;stroke-opacity:1"
       id="path865-6" />
    <path
       inkscape:connector-curvature="0"
       id="path865-3"
       d="m 44.801474,125.99563 a 8.0660023,8.0660023 0 0 0 -6.670404,7.94301 8.0660023,8.0660023 0 0 0 8.066139,8.06614 8.0660023,8.0660023 0 0 0 8.065958,-8.06614 8.0660023,8.0660023 0 0 0 -5.364659,-7.58954 2.0573205,2.0573205 0 0 1 -2.048183,1.87484 2.0573205,2.0573205 0 0 1 -2.057483,-2.05725 2.0573205,2.0573205 0 0 1 0.0086,-0.17106 z"
       style="font-style:normal;font-variant:normal;font-weight:normal;font-stretch:normal;font-size:50.79999924px;line-height:1.25;font-family:'Codec Cold Trial';-inkscape-font-specification:'Codec Cold Trial';letter-spacing:0px;word-spacing:0px;opacity:1;fill:#233250;fill-opacity:1;stroke:none;stroke-width:0.10315575;stroke-opacity:1" />
    <path
       sodipodi:nodetypes="cccccccccccc"
       inkscape:connector-curvature="0"
       id="path862"
       d="m 54.340874,106.06528 -9.926037,2.26012 c -0.383836,1.42567 -0.781549,2.8479 -1.121767,4.28443 -0.261284,-0.13798 -0.54823,-0.21014 -0.839168,-0.21104 -1.060684,-6e-5 -1.319936,0.73737 -1.319881,1.88099 6.2e-5,1.14353 0.259279,2.26016 1.319881,2.2601 0.204913,-8.2e-4 0.408381,-0.037 0.602683,-0.10723 l 0.126988,1.00478 1.231264,3.39029 c 0,0 5.442623,5.80303 8.302088,1.30623 2.059174,-3.4529 3.402788,-6.02865 3.221816,-11.3427 z"
       style="font-style:normal;font-variant:normal;font-weight:normal;font-stretch:normal;font-size:50.79999924px;line-height:1.25;font-family:'Codec Cold Trial';-inkscape-font-specification:'Codec Cold Trial';letter-spacing:0px;word-spacing:0px;opacity:1;fill:#f3c4a0;fill-opacity:1;stroke:none;stroke-width:0.11631124px;stroke-linecap:butt;stroke-linejoin:miter;stroke-opacity:1" />
    <path
       sodipodi:nodetypes="cccc"
       inkscape:connector-curvature="0"
       id="rect889"
       d="m 48.791967,120.92608 4.473052,-0.10274 c -1.317074,0.70448 -2.103617,1.5477 -4.310065,0.26711 -0.325532,-0.25088 -0.162987,-0.16437 -0.162987,-0.16437 z"
       style="font-style:normal;font-variant:normal;font-weight:normal;font-stretch:normal;font-size:50.79999924px;line-height:1.25;font-family:'Codec Cold Trial';-inkscape-font-specification:'Codec Cold Trial';letter-spacing:0px;word-spacing:0px;opacity:1;fill:#e9ae85;fill-opacity:1;stroke:none;stroke-width:0.03077401;stroke-opacity:1" />
    <path
       sodipodi:nodetypes="accscccscccacccac"
       inkscape:connector-curvature="0"
       id="path817"
       d="m 48.252632,124.62787 c -1.801294,-0.81243 -3.445933,-3.04171 -4.720407,-4.43133 -0.542842,-0.65147 -0.316826,-2.91469 -0.580941,-4.9375 0.464135,0.0779 0.408624,0.26034 0.430321,0.90363 0.172866,5.1252 5.147676,8.36364 5.007009,6.63192 -0.05961,-1.11852 -1.214617,-2.15983 0.02364,-2.5065 1.448831,-0.33581 3.957094,-0.85754 5.26206,-0.10501 0.245089,0.0556 1.253336,-2.31944 1.036171,-1.79543 -0.300443,0.72491 -1.708207,3.58556 -1.997461,3.98266 -0.591978,0.98669 -0.669734,1.84387 -1.697399,2.35799 -0.320891,0.004 -1.325681,0.16395 -2.762997,-0.10043 z m 3.74749,-2.23553 c 0.496835,-0.37576 1.315387,-1.62173 1.091395,-1.51695 -1.732561,0.70066 -3.39395,-0.22815 -4.136563,0.21506 -0.21509,0.0869 0.687967,1.76691 1.65711,1.80533 0.469723,0.0293 0.995508,-0.20655 1.388058,-0.50344 z"
       style="font-style:normal;font-variant:normal;font-weight:normal;font-stretch:normal;font-size:50.79999924px;line-height:1.25;font-family:'Codec Cold Trial';-inkscape-font-specification:'Codec Cold Trial';letter-spacing:0px;word-spacing:0px;opacity:1;fill:#271910;fill-opacity:1;stroke:none;stroke-width:0.15508166" />
    <path
       sodipodi:nodetypes="sssss"
       inkscape:connector-curvature="0"
       id="path871-6"
       d="m 55.550057,108.5565 c -0.109739,1.3681 -4.607867,-0.44883 -7.242782,0.41752 -1.848904,0.6079 -6.927002,3.67216 -2.735844,-1.56533 0.857534,-1.07162 2.432493,-2.22021 5.188022,-1.90325 2.755518,0.31696 4.900344,1.68296 4.790604,3.05106 z"
       style="font-style:normal;font-variant:normal;font-weight:normal;font-stretch:normal;font-size:50.79999924px;line-height:1.25;font-family:'Codec Cold Trial';-inkscape-font-specification:'Codec Cold Trial';letter-spacing:0px;word-spacing:0px;opacity:1;fill:#e9ae85;fill-opacity:1;stroke:none;stroke-width:0.16621266;stroke-opacity:1" />
    <path
       sodipodi:nodetypes="csssssscssc"
       inkscape:connector-curvature="0"
       d="m 43.047287,113.69821 c 0,0 -0.131637,-0.46663 0.582461,-0.51546 1.730923,-0.11838 0.338199,-6.39439 6.685641,-5.5101 4.861623,0.6773 5.023412,0.86432 5.377883,3.0243 0.11324,0.69003 0.428261,0.38309 0.41767,0.22526 -0.01798,-0.26794 -0.198575,-1.39116 -0.243669,-2.17597 -0.05326,-0.92731 1.290194,-1.7707 -1.239936,-3.22129 -2.53013,-1.4506 -1.658862,-1.89815 -1.658862,-1.89815 -0.343449,0.13841 -8.95811,0.71393 -10.748297,4.29685 -0.500419,1.00155 -0.314654,0.52652 -0.07068,2.02675 0.287816,1.76978 0.05262,3.03522 0.05262,3.03522"
       style="font-style:normal;font-variant:normal;font-weight:normal;font-stretch:normal;font-size:50.79999924px;line-height:1.25;font-family:'Codec Cold Trial';-inkscape-font-specification:'Codec Cold Trial';letter-spacing:0px;word-spacing:0px;opacity:1;fill:#271910;fill-opacity:1;stroke:none;stroke-width:0.11631124px;stroke-linecap:butt;stroke-linejoin:miter;stroke-opacity:1"
       id="path951" />
    <path
       sodipodi:nodetypes="scccccss"
       inkscape:connector-curvature="0"
       id="rect819-3"
       d="m 37.047264,130.22862 c -0.470375,0 -0.884895,0.37992 -0.849162,0.84894 0.294749,3.94068 0.524537,6.74605 0.524537,6.74605 3.001282,2.772 6.92368,4.31318 10.996136,4.32056 4.535045,-0.008 8.861858,-1.9178 11.941977,-5.26968 l 0.441624,-5.79693 c 0.03573,-0.46902 -0.378793,-0.84894 -0.849167,-0.84894 z"
       style="font-style:normal;font-variant:normal;font-weight:normal;font-stretch:normal;font-size:50.79999924px;line-height:1.25;font-family:'Codec Cold Trial';-inkscape-font-specification:'Codec Cold Trial';letter-spacing:0px;word-spacing:0px;opacity:1;fill:#4d4d4d;fill-opacity:1;stroke:none;stroke-width:0.03077401;stroke-opacity:1" />
    <path
       sodipodi:nodetypes="scccccss"
       inkscape:connector-curvature="0"
       id="rect819"
       d="m 37.051047,130.34491 c -0.470376,0 -0.884896,0.37992 -0.849163,0.84893 0.294749,3.94068 0.519503,6.73095 0.519503,6.73095 3.001277,2.772 6.928743,4.32828 11.001215,4.33566 4.535045,-0.008 8.861858,-1.91779 11.941976,-5.26967 l 0.441624,-5.79694 c 0.03573,-0.46901 -0.378791,-0.84893 -0.849164,-0.84893 z"
       style="font-style:normal;font-variant:normal;font-weight:normal;font-stretch:normal;font-size:50.79999924px;line-height:1.25;font-family:'Codec Cold Trial';-inkscape-font-specification:'Codec Cold Trial';letter-spacing:0px;word-spacing:0px;opacity:1;fill:#cdcccc;fill-opacity:1;stroke:none;stroke-width:0.03077401;stroke-opacity:1" />
    <path
       inkscape:connector-curvature="0"
       id="path885-7"
       d="m 60.906643,135.53721 c -3.220379,3.38911 -7.67396,5.30918 -12.332026,5.3167 -8.999869,-0.001 -16.520194,-6.98888 -17.125785,-16.03127 -0.02835,0.34769 -0.02435,0.6606 -0.03066,1.0094 -5.5e-5,9.07178 7.342013,16.42596 16.350669,16.42601 5.191862,-0.007 10.070255,-2.50274 13.137808,-6.72084 z"
       style="font-style:normal;font-variant:normal;font-weight:normal;font-stretch:normal;font-size:50.79999924px;line-height:1.25;font-family:'Codec Cold Trial';-inkscape-font-specification:'Codec Cold Trial';letter-spacing:0px;word-spacing:0px;opacity:0.19800002;fill:#4c4c4c;fill-opacity:0.69915251;stroke:none;stroke-width:0.03077401;stroke-opacity:1"
       sodipodi:nodetypes="ccccccc" />
    <circle
       r="0.69038516"
       cy="114.84938"
       cx="48.328449"
       id="path864"
       style="font-style:normal;font-variant:normal;font-weight:normal;font-stretch:normal;font-size:50.79999924px;line-height:1.25;font-family:'Codec Cold Trial';-inkscape-font-specification:'Codec Cold Trial';letter-spacing:0px;word-spacing:0px;opacity:1;fill:#233250;fill-opacity:1;stroke:none;stroke-width:0.12701014;stroke-opacity:1" />
    <circle
       r="1.0831485"
       cy="137.01065"
       cx="48.892284"
       id="path1013"
       style="font-style:normal;font-variant:normal;font-weight:normal;font-stretch:normal;font-size:50.79999924px;line-height:1.25;font-family:'Codec Cold Trial';-inkscape-font-specification:'Codec Cold Trial';letter-spacing:0px;word-spacing:0px;opacity:1;fill:none;fill-opacity:1;stroke:#4d4d4d;stroke-width:0.1;stroke-miterlimit:4;stroke-dasharray:none;stroke-opacity:1" />
    <circle
       r="0.69038516"
       cy="115.32588"
       cx="54.002701"
       id="path864-6"
       style="font-style:normal;font-variant:normal;font-weight:normal;font-stretch:normal;font-size:50.79999924px;line-height:1.25;font-family:'Codec Cold Trial';-inkscape-font-specification:'Codec Cold Trial';letter-spacing:0px;word-spacing:0px;opacity:1;fill:#233250;fill-opacity:1;stroke:none;stroke-width:0.12701014;stroke-opacity:1" />
    <path
       sodipodi:nodetypes="ccsccc"
       inkscape:connector-curvature="0"
       id="path955-6"
       d="m 51.133916,119.22739 c 1.229727,0.11789 1.790538,0.31883 2.196245,0.12402 0.130645,-0.0894 0.210076,-0.20672 0.126348,-0.47299 -0.179752,-0.57163 -0.445006,-0.78655 -1.157325,-3.71446 0.639426,3.88807 1.961137,3.90705 -1.165263,4.06341 z"
       style="font-style:normal;font-variant:normal;font-weight:normal;font-stretch:normal;font-size:50.79999924px;line-height:1.25;font-family:'Codec Cold Trial';-inkscape-font-specification:'Codec Cold Trial';letter-spacing:0px;word-spacing:0px;opacity:1;fill:#e9ae85;fill-opacity:1;stroke:none;stroke-width:0.14033884px;stroke-linecap:butt;stroke-linejoin:miter;stroke-opacity:1" />
    <path
       sodipodi:nodetypes="ccsccc"
       inkscape:connector-curvature="0"
       id="path955"
       d="m 51.133916,119.22739 c 1.370287,-0.002 1.681997,0.17071 2.087704,-0.0241 0.130645,-0.0894 0.347849,-0.28662 0.264116,-0.55289 -0.179752,-0.57163 -0.474238,-0.55853 -1.186557,-3.48644 0.639426,3.88807 1.961137,3.90705 -1.165263,4.06341 z"
       style="font-style:normal;font-variant:normal;font-weight:normal;font-stretch:normal;font-size:50.79999924px;line-height:1.25;font-family:'Codec Cold Trial';-inkscape-font-specification:'Codec Cold Trial';letter-spacing:0px;word-spacing:0px;opacity:1;fill:#271910;fill-opacity:1;stroke:none;stroke-width:0.14033884px;stroke-linecap:butt;stroke-linejoin:miter;stroke-opacity:1" />
  </g>
</svg>
