<?xml version="1.0" encoding="UTF-8" standalone="no"?>
<!-- Created with Inkscape (http://www.inkscape.org/) -->

<svg
   xmlns:dc="http://purl.org/dc/elements/1.1/"
   xmlns:cc="http://creativecommons.org/ns#"
   xmlns:rdf="http://www.w3.org/1999/02/22-rdf-syntax-ns#"
   xmlns:svg="http://www.w3.org/2000/svg"
   xmlns="http://www.w3.org/2000/svg"
   xmlns:sodipodi="http://sodipodi.sourceforge.net/DTD/sodipodi-0.dtd"
   xmlns:inkscape="http://www.inkscape.org/namespaces/inkscape"
   version="1.1"
   id="svg2"
   width="593.14996"
   height="341.89682"
   viewBox="0 0 593.14996 341.89682"
   sodipodi:docname="redhat.svg"
   inkscape:version="0.92.3 (2405546, 2018-03-11)">
  <metadata
     id="metadata8">
    <rdf:RDF>
      <cc:Work
         rdf:about="">
        <dc:format>image/svg+xml</dc:format>
        <dc:type
           rdf:resource="http://purl.org/dc/dcmitype/StillImage" />
        <dc:title></dc:title>
      </cc:Work>
    </rdf:RDF>
  </metadata>
  <defs
     id="defs6" />
  <sodipodi:namedview
     pagecolor="#ffffff"
     bordercolor="#666666"
     borderopacity="1"
     objecttolerance="10"
     gridtolerance="10"
     guidetolerance="10"
     inkscape:pageopacity="0"
     inkscape:pageshadow="2"
     inkscape:window-width="3840"
     inkscape:window-height="2106"
     id="namedview4"
     showgrid="false"
     inkscape:zoom="3.7636549"
     inkscape:cx="236.51024"
     inkscape:cy="137.08284"
     inkscape:window-x="0"
     inkscape:window-y="54"
     inkscape:window-maximized="1"
     inkscape:current-layer="g817" />
  <g
     transform="translate(-28.944858,-55.96525)"
     id="g817">
    <path
       style="fill:#86aadc"
       d="m 100.5,397.32972 c -20.446968,-0.81365 -44.486689,-3.90693 -53.649482,-6.90325 -6.879354,-2.24962 -13.129662,-6.79915 -15.752698,-11.46621 -4.807457,-8.55372 -1.44245,-21.2329 8.880227,-33.46026 20.496224,-24.27808 62.875173,-45.70392 97.062583,-49.07266 3.85206,-0.37957 7.22652,-1.05059 7.4988,-1.49114 0.56578,-0.91545 -2.39504,-34.89355 -3.14655,-36.10953 -0.94021,-1.52129 1.64171,-40.43549 3.54185,-53.38194 2.61979,-17.84981 6.50461,-34.7314 11.20684,-48.69966 3.83644,-11.39638 3.92113,-11.93795 2.77662,-17.75537 C 153.13337,109.586 172.35345,88.57303 214.25038,78.496002 227.63772,75.276088 247.53732,73 262.30136,73 c 10.38152,0 12.92795,-0.360944 21.00612,-2.977509 34.60509,-11.208786 76.25959,-16.585766 100.00097,-12.908647 14.12628,2.187912 27.73325,8.603228 34.42285,16.229437 3.96503,4.520176 4.59913,5.736682 12.08497,23.184782 3.29695,7.684567 11.37912,25.221937 17.96038,38.971937 14.64706,30.60156 20.61706,44.25705 26.44983,60.5 5.19043,14.45417 6.63913,20.06703 10.35948,40.13695 l 2.71324,14.63696 11.1004,1.18592 c 67.33712,7.19401 111.86461,20.69027 121.28249,36.76066 6.21213,10.60021 0.33636,22.73123 -16.56199,34.1936 -29.90827,20.28718 -74.16158,25.9107 -261.08426,33.17747 l -29.46415,1.14544 -12.16226,4.31448 c -44.26715,15.70348 -94.41244,27.56592 -139.12334,32.91119 -11.21232,1.34046 -51.7529,3.86901 -53.28609,3.32351 -0.275,-0.0978 -3.65,-0.30325 -7.5,-0.45646 z M 431.75,259.69098 c 1.54649,-1.00091 1.77487,-31.18028 0.26598,-35.14894 -0.75632,-1.98929 -1.50835,-2.47835 -3.25,-2.11356 -1.24629,0.26104 -6.22688,0.99622 -11.06799,1.63374 -7.27871,0.95852 -8.74311,1.44283 -8.46169,2.79845 0.19378,0.93342 1.18504,1.55994 2.30201,1.45496 1.07893,-0.1014 5.22419,-0.49177 9.21169,-0.86748 l 7.25,-0.68313 v 6.46661 c 0,3.55664 0.25078,9.79701 0.55728,13.86749 0.3065,4.07049 0.1527,7.98724 -0.34178,8.70389 -0.49448,0.71666 -3.94716,1.73468 -7.67262,2.26227 -7.84769,1.11137 -9.03997,1.63083 -7.63331,3.32575 0.77117,0.92922 2.9465,0.96687 9.29856,0.16098 4.56053,-0.57861 8.85437,-1.41607 9.54187,-1.86103 z"
       id="path831"
       inkscape:connector-curvature="0" />
    <path
       style="fill:#091426"
       d="M 82.5,393.93341 C 67.195505,392.50374 49.502335,389.27169 43.983343,386.89749 38.157193,384.39115 32.500104,378.55344 31.504427,374.02016 25.062668,344.69102 94.98268,298.37677 145,298.84194 c 12.11696,0.11269 35.05115,-2.83749 103.5,-13.3139 81.88147,-12.53233 156.6752,-22.1486 163.016,-20.95906 3.88711,0.72923 19.90519,-1.18885 22.78091,-2.72788 1.06517,-0.57006 13.24661,-2.36789 27.06988,-3.99518 13.82327,-1.62729 26.7601,-3.19981 28.74852,-3.4945 7.16945,-1.06254 49.58787,5.05048 74.38469,10.71974 50.93197,11.64451 67.23423,28.19461 47.35447,48.07437 -11.99153,11.99153 -31.24535,20.53403 -56.85447,25.2251 -38.70358,7.08971 -84.67885,10.40979 -216.80228,15.65626 l -26.30228,1.04443 -16.19772,5.51049 c -48.3462,16.44746 -90.02212,26.16523 -135.19772,31.52468 -19.57,2.3217 -62.051807,3.31671 -78,1.82692 z M 144.01032,250.75 c 0.0262,-31.12268 5.328,-65.66092 14.2129,-92.58926 l 4.07129,-12.33926 -1.31539,-8.45573 C 155.55753,102.51423 184.6992,81.603252 246.5,75.999152 c 19.70202,-1.78658 22.3706,-1.216842 11.5,2.45523 -9.28527,3.13655 -24.12916,9.984226 -31.7106,14.628508 C 217.67747,98.358434 208,106.54659 208,108.55763 c 0,2.32238 3.44851,1.66062 6.07569,-1.1659 7.46415,-8.030525 28.14929,-19.091696 49.15304,-26.28409 6.4508,-2.208973 12.9758,-4.918425 14.5,-6.021004 6.06435,-4.386849 47.13702,-13.903856 69.77127,-16.166802 22.17379,-2.216909 43.01637,0.2718 55.65411,6.645382 11.36194,5.730153 16.23153,11.439407 21.91113,25.68925 1.80755,4.535044 7.08702,16.345534 11.73216,26.245534 4.64514,9.9 12.03729,25.65 16.42701,35 4.38972,9.35 10.16292,22.29263 12.82932,28.76139 4.48131,10.87177 12.94627,35.4421 12.94627,37.57775 0,0.50837 -3.9375,1.21402 -8.75,1.56811 -4.8125,0.35409 -14.56139,1.14338 -21.6642,1.75397 -11.60653,0.99774 -13.03531,0.94453 -14.11024,-0.52553 -1.4379,-1.96644 -4.77642,-2.01762 -17.18333,-0.26343 -6.93945,0.98115 -9.64928,1.80574 -11,3.34725 -1.43146,1.63365 -3.90584,2.28368 -12.29223,3.22922 -18.0835,2.03886 -65.28141,8.80237 -126,18.05594 -80.8428,12.32052 -114.19148,16.99489 -121.25,16.99521 L 144,263 l 0.0103,-12.25 z"
       id="path821"
       inkscape:connector-curvature="0" />
    <path
       style="fill:#000001"
       d="m 316,353.28342 c 0,-0.4767 1.4625,-1.54159 3.25,-2.36641 1.7875,-0.82483 13.825,-6.89584 26.75,-13.49114 12.925,-6.59531 27.325,-13.73953 32,-15.87607 4.675,-2.13653 14.74518,-6.73589 22.37817,-10.22081 20.53623,-9.37601 54.48325,-21.51025 77.62183,-27.74565 31.15661,-8.3961 70.10809,-14.58003 91.8525,-14.5825 15.73443,-0.002 42.72008,12.47059 47.66302,22.02916 5.11282,9.88712 -3.45069,22.3762 -22.90769,33.40868 -18.22152,10.33195 -45.67595,15.88089 -101.60783,20.53641 -27.37352,2.27845 -87.82084,5.53011 -130,6.99312 -16.225,0.56277 -33.4375,1.28394 -38.25,1.60258 -4.8125,0.31865 -8.75,0.18933 -8.75,-0.28737 z"
       id="path819"
       inkscape:connector-curvature="0" />
  </g>
</svg>
