<svg version="1" xmlns="http://www.w3.org/2000/svg" width="933.333" height="933.333" viewBox="0 0 700.000000 700.000000"><path d="M140.5 54l-6 .5.1 26.5c.1 24.9.9 101.8 1.9 187 .5 39 1 83.7 2.1 186 .4 33.3.7 63.6.8 67.5l.1 7 23.5-.2c52.2-.3 104.4-1.3 105-2 .4-.5 1.3-5.3 1.9-10.8.7-5.4 1.5-10.7 1.6-11.7.2-1 1.1-7.1 2-13.6.9-6.4 1.8-12.8 2-14.2.9-5.8 1.7-11.7 2-14 .5-4.1 1.6-12.3 2.2-15.5.7-4.3 1-6.2 1.8-13 .4-3.3 1-6.4 1.4-6.8.4-.4 12-.7 25.7-.7 13.7.1 31.7.2 39.9.2 15.8 0 37-.9 41.8-1.8 5.8-1 18.3 7.9 26.2 18.6 9.1 12.5 13 24 12.2 36.8-.3 4.8-1 9.8-1.5 11.2-.5 1.4-1 2.8-1 3.3-.1 1.4-3.6 10.2-4.3 10.7-.3.3-1.4 2-2.3 3.8-4.2 8.1-17.6 17.8-27.3 19.5-1.8.4-30.1.7-63 .8-45.7 0-61.8.4-68.3 1.5-4.7.7-10.1 1.6-12 1.9-5.5.9-17.2 4.3-23.8 7-6.4 2.6-5.4 2.6-19.7 0-7.4-1.3-26.1-.5-33.7 1.4-10.9 2.8-23.6 9.7-30.4 16.5-1.1 1.2-3.5 3.4-5.3 4.9-1.9 1.5-3.2 2.9-3 3 .8.6 11.4 9.2 11.9 9.7.3.3 4 3.1 8.3 6.3 4.2 3.2 7.7 5.9 7.7 6.1 0 .1-2.5 4-5.5 8.6-10.8 16.1-18.5 35.5-18.5 46.7v4.3l113.3.1c151.9.1 151.5.1 165.3-1.5 2.1-.2 6.8-.7 10.4-1.1 38.4-3.8 70.4-16.2 99.5-38.3 22.9-17.5 37.4-39.7 44-67.4 3.8-16.3 4.8-26.6 4.8-48.8-.2-47.1-5.2-69.9-20.8-93.5-5.1-7.8-20.5-23-28.9-28.5-3.6-2.4-6.6-4.7-6.6-5.1 0-.4 2.4-3.8 5.3-7.5 18.3-23.8 30.2-51.4 36.3-84.4 2.8-14.9 2.5-45.2-.5-64.5-3.1-20-11.1-42.3-21.3-59-1-1.7-2.1-3.7-2.5-4.5-.4-.8-1.1-2-1.5-2.5-.4-.6-3.6-4.8-6.9-9.4-15.3-21-36.4-39.7-59.1-52.4-2.5-1.3-5.3-3-6.4-3.6-9-5-26.7-11.7-39.9-14.9-15.9-4-23.1-4.6-67-5.9-27.5-.7-205.4-1-214-.3zM359 181.4c22.8 3.8 33.5 9.9 43.2 24.6 4.1 6.3 8.6 16.9 9.4 22 .3 1.9.7 4.2 1 4.9.3.8.5 4.9.5 9.1.1 28.4-16.3 52.1-40.8 59.3-4.3 1.3-12.7 1.6-47.3 1.7l-42 .1v-59.4c0-45.9.3-59.7 1.3-61 .7-1 3-1.7 5.7-1.9 9.2-.6 64.7-.1 69 .6z"/></svg>